<svg width="773" height="148" viewBox="0 0 773 148" fill="none" xmlns="http://www.w3.org/2000/svg">
<mask id="mask0_174_259" style="mask-type:luminance" maskUnits="userSpaceOnUse" x="113" y="0" width="96" height="148">
<path d="M113.24 0H208.87V148H113.24V0Z" fill="white"/>
</mask>
<g mask="url(#mask0_174_259)">
<path d="M138.364 148.001L208.782 -3.09534H186.754L116.425 148.001H138.364Z" fill="#38B6FF"/>
</g>
<mask id="mask1_174_259" style="mask-type:luminance" maskUnits="userSpaceOnUse" x="0" y="0" width="182" height="148">
<path d="M0 0H181.174V148H0V0Z" fill="white"/>
</mask>
<g mask="url(#mask1_174_259)">
<path d="M72.2746 148.001H94.3021L164.808 -3.09534H142.603L83.2442 124.381L23.8849 -3.09534H1.85742L72.2746 148.001Z" fill="#38B6FF"/>
</g>
<mask id="mask2_174_259" style="mask-type:luminance" maskUnits="userSpaceOnUse" x="45" y="0" width="91" height="96">
<path d="M45.3003 0H135.887V95.7179H45.3003V0Z" fill="white"/>
</mask>
<g mask="url(#mask2_174_259)">
<path d="M94.3936 53.433L77.2316 16.8975H111.379L120.667 -3.09534H46.0039L83.2472 77.1414L94.3936 53.433Z" fill="#38B6FF"/>
</g>
<path d="M293.337 147.88C280.937 147.88 270.275 145.33 261.351 140.463C252.659 135.595 245.821 128.642 240.954 119.602C236.318 110.33 234 99.4364 234 86.6881V2.78137H265.987V84.3703C265.987 106.39 275.026 117.284 293.337 117.284C311.533 117.284 320.688 106.39 320.688 84.3703V2.78137H352.675V86.6881C352.675 99.4364 350.125 110.33 345.258 119.602C340.622 128.642 333.784 135.595 324.86 140.463C316.168 145.33 305.622 147.88 293.337 147.88Z" fill="black"/>
<path d="M435.224 147.88C423.172 147.88 412.741 146.026 404.165 142.317C395.473 138.377 388.867 132.814 384.231 125.628C379.596 118.211 377.278 109.635 377.278 99.6683H409.264C409.264 106.506 411.582 111.953 416.218 115.893C420.854 119.602 426.996 121.456 434.761 121.456C441.483 121.456 446.93 120.297 450.986 117.748C454.926 114.966 457.012 111.142 457.012 106.158C457.012 101.291 454.463 97.2345 449.595 94.1054C444.96 91.0922 437.542 88.4266 427.344 86.2246C410.887 82.8637 398.718 77.6485 390.721 70.4631C382.609 63.046 378.669 53.6586 378.669 42.1852C378.669 29.2051 383.304 19.0065 392.576 11.5893C402.079 3.94039 415.059 0 431.516 0C442.873 0 452.609 2.08609 460.721 6.02645C469.065 9.73504 475.324 15.182 479.728 22.2515C484.363 29.0892 486.681 37.3177 486.681 46.8209H455.622C455.622 40.6786 453.42 35.6951 449.132 31.9866C445.075 28.278 439.397 26.4237 431.979 26.4237C425.142 26.4237 419.695 27.8144 415.754 30.5958C412.046 33.1455 410.192 36.8541 410.192 41.7216C410.192 46.1255 412.278 49.8341 416.682 52.8474C420.97 55.6288 428.503 58.2944 439.397 60.7281C457.012 65.1321 469.645 70.8108 477.41 77.8803C485.406 84.718 489.463 93.8736 489.463 105.231C489.463 118.559 484.479 129.105 474.628 136.754C465.009 144.171 451.913 147.88 435.224 147.88Z" fill="black"/>
<path d="M555.166 145.098L500.465 2.78137H535.233L554.239 53.3109L570.928 98.741L606.623 2.78137H641.391L586.689 145.098H555.166Z" fill="black"/>
<path d="M660.311 145.098V2.78137H715.939C727.297 2.78137 737.264 4.98335 745.608 9.2714C753.952 13.6753 760.442 19.7018 765.078 27.3508C769.946 34.7679 772.495 43.8076 772.495 54.238C772.495 64.7843 769.946 73.9399 765.078 81.5888C760.442 89.006 753.952 94.9166 745.608 99.2046C737.264 103.609 727.297 105.695 715.939 105.695H692.297V145.098H660.311ZM692.297 77.8802H713.158C721.502 77.8802 727.992 75.9101 732.628 71.8538C737.264 67.9134 739.582 62.1187 739.582 54.7016C739.582 47.2844 737.264 41.6056 732.628 37.5494C727.992 33.2613 721.502 31.0593 713.158 31.0593H692.297V77.8802Z" fill="black"/>
</svg>
